<svg width="2007" height="400" viewBox="0 0 2007 400" fill="none" xmlns="http://www.w3.org/2000/svg">
<g clip-path="url(#clip0_66_14)">
<path d="M335.326 125.649C333.594 127.721 332.179 129.433 330.279 131.696C313.469 118.672 296.533 119.941 279.512 131.125C283.757 136.665 283.757 136.665 290.007 135.587C311.358 131.928 328.357 139.074 340.267 157.088C338.092 158.525 335.917 159.985 333.531 161.57C323.542 147.13 310.428 140.936 292.562 143.747C314.103 171.697 314.61 200.662 299.447 231.615C284.179 224.808 269.46 218.253 253.98 211.339C252.312 223.518 247.434 233.538 237.994 241.002C280.927 270.665 301.2 332.993 275.499 371.155C290.598 383.924 309.034 389.169 327.596 395.384C325.042 395.702 322.486 396.166 319.91 396.336C288.086 398.217 256.831 394.327 226.316 385.595C195.062 376.652 176.098 353.86 164.146 325.043C159.669 314.239 156.882 302.23 155.994 290.56C154.326 268.699 160.471 249.269 179.751 236.203C161.907 211.952 173.903 175.481 212.4 170.979C212.442 170.323 212.674 169.625 212.527 168.991C205.156 137.404 235.017 116.452 264.412 125.268C269.017 126.643 272.247 126.177 276.28 123.556C296.68 110.3 318.01 111.06 335.326 125.649ZM250.749 282.463C240.212 266.67 226.886 255.845 213.582 251.869C195.484 246.457 180.702 254.216 177.492 272.758C175.718 283.075 177.534 294.027 177.957 304.662C178.168 309.863 181.314 311.322 186.299 311.004C211.238 309.462 231.279 297.283 250.749 282.463ZM287.6 205.927C293.871 182.374 285.509 159.54 266.419 148.145C261.097 144.973 253.875 143.366 247.646 143.662C234.151 144.317 227.711 155.968 233.496 168.187C235.693 172.818 238.712 178.019 242.831 180.577C257.274 189.541 272.374 197.428 287.6 205.927ZM213.983 191.445C202.074 191.297 191.367 200.768 191.24 211.593C191.114 221.594 200.089 229.924 211.132 230.072C223.149 230.219 233.708 220.811 233.771 209.88C233.835 199.648 225.176 191.571 213.983 191.445ZM189.804 330.604C193.753 340.054 195.231 340.921 204.185 339.505C224.056 336.355 241.669 328.172 257.465 315.804C265.046 309.863 265.067 309.884 259.999 300.582C239.093 316.375 216.348 327.961 189.804 330.604ZM266.862 336.228C249.799 343.945 232.778 351.661 215.821 359.357C226.57 365.933 238.438 371.451 251.594 364.474C262.976 358.406 266.376 347.412 266.862 336.228Z" fill="black"/>
<path d="M4.42546 14.9331C61.7577 67.6158 118.689 119.898 176 172.538C162.669 183.868 157.691 198.384 157.565 215.6C153.24 215.937 149.254 216.464 145.267 216.507C108.965 216.993 74.6669 210.789 46.1485 186.062C22.4182 165.491 10.7324 138.295 4.65749 108.336C-1.43854 78.2494 -1.16435 47.9521 3.2442 17.6548C3.30748 17.0429 3.70828 16.4944 4.42546 14.9331Z" fill="black"/>
<path d="M123.733 26.1299C202.159 -8.571 313.831 13.3152 368.473 110.27C420.201 202.024 388.56 313.866 305.615 368C302.383 359.88 299.194 351.929 296.152 344.316C305.509 335.455 315.394 327.547 323.548 318.116C366.361 268.486 379.288 211.688 357.258 149.813C335.017 87.348 289.267 50.3633 223.746 38.9444C196.647 34.2288 169.906 37.0623 144.011 46.2821C139.004 48.0584 136.66 46.9376 134.273 42.7718C131.105 37.2104 127.472 31.945 123.733 26.1299Z" fill="black"/>
<path d="M8.99806 160C16.5225 169.712 23.3282 178.259 29.7536 187.061C30.8949 188.626 30.8949 191.356 30.768 193.513C25.4841 284.89 89.7373 361.733 180.643 372.798C182.566 373.03 184.659 373.771 186.202 374.914C196.98 382.848 207.654 390.951 218.667 399.244C157.562 404.026 103.92 386.254 60.6119 342.057C10.9214 291.344 -4.67686 230.009 8.99806 160Z" fill="black"/>
<path d="M89.7359 0C127.782 53.2484 164.649 104.882 201.6 156.622C195.775 159.618 190.517 162.316 184.691 165.333C178.592 159.426 172.178 153.329 165.91 147.102C135.079 116.42 104.353 85.6097 73.3526 55.097C69.2725 51.0811 68.221 47.5326 70.5554 42.4543C76.8227 28.7277 82.9638 15.0013 89.7359 0Z" fill="black"/>
<path d="M275.578 187.733C267.248 178.595 259.46 169.898 259.2 156.8C273.539 161.664 280.958 175.393 275.578 187.733Z" fill="black"/>
<path d="M1825.06 265.731L1809.01 357.576H1714.92L1770.46 42.5479H1902.63C1983.09 42.5479 2016.9 80.2042 2004.05 155.517C2000.99 172.049 1997.01 186.285 1992.12 198.225C1987.22 210.165 1979.88 221.951 1970.09 233.585C1960.6 244.912 1947.3 253.638 1930.16 259.761C1913.33 265.578 1893.14 268.486 1869.58 268.486C1853.98 268.486 1839.14 267.567 1825.06 265.731ZM1888.4 117.401H1851.22L1837.46 195.01C1850.92 195.929 1861.17 196.388 1868.2 196.388C1881.36 196.388 1890.54 194.092 1895.74 189.5C1901.25 184.907 1905.07 176.794 1907.21 165.161L1909.97 149.088C1911.8 137.76 1911.19 129.648 1908.13 124.749C1905.07 119.851 1898.49 117.401 1888.4 117.401Z" fill="#010101"/>
<path d="M1438.67 353.902L1460.7 275.374C1497.72 279.66 1524.64 281.804 1541.48 281.804C1561.36 281.804 1574.52 280.885 1580.95 279.048C1587.37 277.212 1591.04 273.385 1591.95 267.567C1592.87 262.057 1590.88 257.618 1585.99 254.25C1581.09 250.577 1571.46 245.678 1557.08 239.555L1525.87 226.237C1478.45 206.031 1459.33 173.427 1468.5 128.423C1475.85 93.2156 1490.84 68.8766 1513.48 55.406C1536.12 41.9355 1570.24 35.2002 1615.82 35.2002C1647.95 35.2002 1681.91 38.874 1717.7 46.2216L1695.22 125.667C1667.07 121.381 1644.12 119.238 1626.38 119.238C1604.96 119.238 1590.74 120.463 1583.69 122.912C1576.96 125.055 1572.99 129.035 1571.77 134.852C1570.84 141.587 1576.04 147.71 1587.37 153.221C1589.21 154.139 1594.56 156.435 1603.43 160.109L1632.34 172.508C1658.96 183.836 1677.47 197.154 1687.87 212.461C1698.58 227.462 1701.95 245.984 1697.97 268.027C1693.99 290.376 1686.96 308.286 1676.86 321.756C1666.76 334.921 1650.55 345.33 1628.21 352.983C1605.88 360.637 1576.2 364.464 1539.18 364.464C1507.36 364.464 1473.86 360.943 1438.67 353.902Z" fill="#010101"/>
<path d="M1169.77 353.902L1191.8 275.374C1228.82 279.66 1255.74 281.804 1272.57 281.804C1292.45 281.804 1305.61 280.885 1312.03 279.048C1318.46 277.212 1322.14 273.385 1323.05 267.567C1323.97 262.057 1321.98 257.618 1317.08 254.25C1312.19 250.577 1302.55 245.678 1288.17 239.555L1256.97 226.237C1209.54 206.031 1190.41 173.427 1199.6 128.423C1206.94 93.2156 1221.93 68.8766 1244.57 55.406C1267.22 41.9355 1301.33 35.2002 1346.91 35.2002C1379.04 35.2002 1413 38.874 1448.8 46.2216L1426.31 125.667C1398.16 121.381 1375.21 119.238 1357.47 119.238C1336.05 119.238 1321.82 120.463 1314.79 122.912C1308.06 125.055 1304.08 129.035 1302.86 134.852C1301.94 141.587 1307.14 147.71 1318.46 153.221C1320.29 154.139 1325.65 156.435 1334.52 160.109L1363.44 172.508C1390.05 183.836 1408.56 197.154 1418.97 212.461C1429.68 227.462 1433.04 245.984 1429.06 268.027C1425.09 290.376 1418.05 308.286 1407.95 321.756C1397.86 334.921 1381.64 345.33 1359.3 352.983C1336.97 360.637 1307.3 364.464 1270.28 364.464C1238.46 364.464 1204.95 360.943 1169.77 353.902Z" fill="#010101"/>
<path d="M1056.91 357.576L1052.32 301.551H961.903L937.586 357.576H837.535L988.063 42.5479H1114.27L1156.95 357.576H1056.91ZM1015.14 174.805L989.897 232.667H1046.81L1042.22 174.805L1041.3 112.809H1038.09L1015.14 174.805Z" fill="#010101"/>
<path d="M747.933 234.044L810.806 42.5479H909.016L779.139 357.576H659.358L657.522 238.637L659.358 196.847H656.146L643.755 239.096L600.615 357.576H480.374L459.263 42.5479H557.016L552.886 234.044L551.968 285.937H554.721L573.079 234.504L630.904 95.3587L628.61 42.5479H717.643L728.657 234.504L729.116 285.937H731.87L747.933 234.044Z" fill="#010101"/>
</g>
<defs>
<clipPath id="clip0_66_14">
<rect width="2006.71" height="400" fill="white"/>
</clipPath>
</defs>
</svg>
