<svg width="2356" height="403" viewBox="0 0 2356 403" fill="none" xmlns="http://www.w3.org/2000/svg">
<rect width="2355" height="400" transform="translate(0 3)" fill="white"/>
<path d="M336.135 128.237C334.399 130.311 332.981 132.025 331.077 134.29C314.232 121.254 297.26 122.524 280.203 133.718C284.457 139.263 284.457 139.263 290.721 138.184C312.116 134.522 329.151 141.675 341.086 159.705C338.907 161.144 336.727 162.605 334.336 164.192C324.326 149.738 311.184 143.538 293.281 146.352C314.867 174.328 315.375 203.32 300.18 234.302C284.88 227.488 270.13 220.927 254.618 214.007C252.946 226.197 248.058 236.227 238.598 243.698C281.621 273.388 301.937 335.774 276.182 373.972C291.313 386.753 309.788 392.002 328.389 398.223C325.829 398.541 323.268 399.006 320.686 399.176C288.795 401.059 257.475 397.165 226.896 388.425C195.576 379.474 176.572 356.661 164.595 327.817C160.108 317.003 157.315 304.983 156.426 293.302C154.754 271.42 160.912 251.972 180.233 238.894C162.351 214.621 174.372 178.116 212.95 173.609C212.992 172.953 213.225 172.254 213.077 171.62C205.691 140.003 235.615 119.032 265.072 127.856C269.686 129.232 272.923 128.766 276.965 126.142C297.408 112.874 318.782 113.635 336.135 128.237ZM251.38 285.197C240.821 269.389 227.467 258.554 214.135 254.575C195.999 249.158 181.186 256.924 177.969 275.483C176.191 285.81 178.011 296.772 178.435 307.417C178.646 312.623 181.799 314.083 186.794 313.765C211.786 312.221 231.869 300.031 251.38 285.197ZM288.308 208.59C294.593 185.015 286.213 162.16 267.083 150.754C261.75 147.579 254.512 145.971 248.27 146.267C234.747 146.923 228.293 158.584 234.091 170.815C236.292 175.45 239.318 180.656 243.445 183.216C257.919 192.189 273.05 200.083 288.308 208.59ZM214.537 194.094C202.602 193.946 191.873 203.426 191.746 214.261C191.619 224.271 200.613 232.609 211.68 232.757C223.722 232.905 234.303 223.488 234.366 212.547C234.43 202.305 225.753 194.221 214.537 194.094ZM190.307 333.383C194.264 342.842 195.745 343.71 204.718 342.292C224.631 339.139 242.281 330.949 258.11 318.569C265.707 312.623 265.728 312.644 260.649 303.333C239.699 319.141 216.907 330.737 190.307 333.383ZM267.527 339.012C250.428 346.736 233.371 354.46 216.378 362.163C227.15 368.745 239.043 374.268 252.227 367.284C263.633 361.211 267.04 350.207 267.527 339.012Z" fill="black"/>
<path d="M4.43984 17.3691C61.9584 70.2109 119.075 122.651 176.572 175.45C163.198 186.814 158.204 201.374 158.077 218.642C153.738 218.98 149.739 219.509 145.739 219.552C109.319 220.039 74.9096 213.817 46.2985 189.015C22.4911 168.382 10.7673 141.104 4.67263 111.054C-1.44322 80.8766 -1.16814 50.4878 3.25474 20.099C3.31823 19.4853 3.72033 18.9351 4.43984 17.3691Z" fill="black"/>
<path d="M123.54 28.5434C202.115 -6.18364 313.999 15.7191 368.745 112.747C420.571 204.57 388.87 316.496 305.767 370.671C302.529 362.545 299.334 354.588 296.286 346.969C305.661 338.102 315.565 330.188 323.734 320.75C366.629 271.082 379.58 214.241 357.508 152.32C335.225 89.8076 289.388 52.7951 223.743 41.3676C196.592 36.6484 169.8 39.4841 143.856 48.7108C138.84 50.4884 136.491 49.3668 134.1 45.1979C130.926 39.6323 127.286 34.3629 123.54 28.5434Z" fill="black"/>
<path d="M8.58766 162.943C16.1214 172.657 22.9356 181.206 29.3689 190.01C30.5116 191.576 30.5116 194.306 30.3846 196.464C25.0941 287.863 89.4269 364.724 180.445 375.792C182.371 376.024 184.466 376.765 186.011 377.908C196.803 385.844 207.49 393.949 218.516 402.244C157.336 407.027 103.627 389.251 60.2655 345.043C10.5134 294.318 -5.10421 232.969 8.58766 162.943Z" fill="black"/>
<path d="M89.7443 3C128.027 56.0322 165.124 107.456 202.305 158.986C196.444 161.97 191.153 164.657 185.291 167.662C179.154 161.779 172.7 155.706 166.393 149.505C135.37 118.947 104.452 88.2621 73.259 57.8733C69.1535 53.8737 68.0954 50.3396 70.4444 45.2819C76.7507 31.6111 82.9301 17.9404 89.7443 3Z" fill="black"/>
<path d="M276.034 190.222C267.908 181.038 260.311 172.298 260.057 159.135C274.045 164.023 281.282 177.821 276.034 190.222Z" fill="black"/>
<path d="M2134.27 280.056L2114.75 391.632H2000.38L2067.89 8.92627H2228.56C2326.37 8.92627 2367.47 54.6724 2351.85 146.165C2348.13 166.248 2343.29 183.543 2337.34 198.048C2331.39 212.553 2322.46 226.871 2310.56 241.004C2299.03 254.765 2282.86 265.365 2262.03 272.804C2241.57 279.87 2217.03 283.403 2188.39 283.403C2169.42 283.403 2151.38 282.287 2134.27 280.056ZM2211.26 99.8608H2166.07L2149.34 194.142C2165.7 195.258 2178.16 195.816 2186.71 195.816C2202.71 195.816 2213.86 193.027 2220.19 187.448C2226.88 181.869 2231.53 172.013 2234.13 157.88L2237.48 138.354C2239.71 124.593 2238.97 114.738 2235.25 108.787C2231.53 102.836 2223.53 99.8608 2211.26 99.8608Z" fill="#010101"/>
<path d="M1664.57 387.169L1691.35 291.771C1736.35 296.978 1769.08 299.582 1789.54 299.582C1813.71 299.582 1829.71 298.466 1837.52 296.234C1845.33 294.003 1849.79 289.354 1850.9 282.287C1852.02 275.593 1849.6 270.2 1843.65 266.109C1837.7 261.646 1825.99 255.695 1808.51 248.257L1770.57 232.078C1712.92 207.531 1689.68 167.922 1700.83 113.25C1709.76 70.4789 1727.99 40.9112 1755.51 24.5467C1783.03 8.18224 1824.5 0 1879.91 0C1918.97 0 1960.25 4.46303 2003.76 13.3891L1976.43 109.902C1942.21 104.695 1914.32 102.092 1892.75 102.092C1866.71 102.092 1849.42 103.58 1840.86 106.555C1832.68 109.159 1827.85 113.994 1826.36 121.06C1825.24 129.242 1831.56 136.681 1845.33 143.375C1847.56 144.491 1854.07 147.28 1864.85 151.743L1900 166.806C1932.36 180.567 1954.86 196.746 1967.5 215.342C1980.52 233.566 1984.61 256.067 1979.77 282.845C1974.94 309.995 1966.39 331.753 1954.11 348.117C1941.84 364.11 1922.13 376.755 1894.98 386.053C1867.83 395.351 1831.75 400 1786.75 400C1748.07 400 1707.34 395.723 1664.57 387.169Z" fill="#010101"/>
<path d="M1337.69 387.169L1364.47 291.771C1409.47 296.978 1442.2 299.582 1462.66 299.582C1486.83 299.582 1502.82 298.466 1510.63 296.234C1518.44 294.003 1522.91 289.354 1524.02 282.287C1525.14 275.593 1522.72 270.2 1516.77 266.109C1510.82 261.646 1499.1 255.695 1481.62 248.257L1443.69 232.078C1386.04 207.531 1362.79 167.922 1373.95 113.25C1382.88 70.4789 1401.1 40.9112 1428.62 24.5467C1456.15 8.18224 1497.62 0 1553.03 0C1592.08 0 1633.37 4.46303 1676.88 13.3891L1649.54 109.902C1615.33 104.695 1587.43 102.092 1565.86 102.092C1539.83 102.092 1522.53 103.58 1513.98 106.555C1505.8 109.159 1500.96 113.994 1499.48 121.06C1498.36 129.242 1504.68 136.681 1518.44 143.375C1520.67 144.491 1527.18 147.28 1537.97 151.743L1573.12 166.806C1605.47 180.567 1627.97 196.746 1640.62 215.342C1653.64 233.566 1657.73 256.067 1652.89 282.845C1648.06 309.995 1639.5 331.753 1627.23 348.117C1614.96 364.11 1595.24 376.755 1568.09 386.053C1540.94 395.351 1504.87 400 1459.87 400C1421.19 400 1380.46 395.723 1337.69 387.169Z" fill="#010101"/>
<path d="M1200.5 391.632L1194.92 323.571H1085.01L1055.45 391.632H933.828L1116.81 8.92627H1270.23L1322.11 391.632H1200.5ZM1149.73 169.596L1119.04 239.889H1188.22L1182.64 169.596L1181.53 94.2819H1177.62L1149.73 169.596Z" fill="#010101"/>
<path d="M824.907 241.562L901.336 8.92627H1020.72L862.842 391.632H717.236L715.004 247.141L717.236 196.374H713.331L698.268 247.699L645.827 391.632H499.662L474 8.92627H592.828L587.808 241.562L586.692 304.603H590.039L612.354 242.12L682.647 73.0825L679.858 8.92627H788.087L801.476 242.12L802.034 304.603H805.381L824.907 241.562Z" fill="#010101"/>
</svg>
