<?xml version="1.0" encoding="utf-8"?>
<!-- Generator: Adobe Illustrator 24.3.0, SVG Export Plug-In . SVG Version: 6.00 Build 0)  -->
<svg version="1.1" id="Layer_1" xmlns="http://www.w3.org/2000/svg" xmlns:xlink="http://www.w3.org/1999/xlink" x="0px" y="0px"
	 viewBox="0 0 512 512" style="enable-background:new 0 0 512 512;" xml:space="preserve">
<g>
	<g>
		<path d="M432.86,160.98c-2.2,2.63-4.02,4.81-6.42,7.69c-21.4-16.56-42.97-14.96-64.66-0.74c5.4,7.04,5.4,7.04,13.36,5.68
			c27.18-4.64,48.85,4.43,63.99,27.35c-2.77,1.84-5.54,3.68-8.59,5.71c-12.71-18.36-29.42-26.25-52.17-22.67
			c27.42,35.56,28.09,72.4,8.77,111.76c-19.44-8.66-38.18-17.01-57.9-25.79c-2.13,15.48-8.34,28.24-20.36,37.72
			c54.68,37.74,80.49,117.02,47.77,165.56c19.22,16.24,42.7,22.92,66.34,30.81c-3.26,0.41-6.51,1.01-9.79,1.2
			c-40.52,2.38-80.33-2.56-119.2-13.67c-39.81-11.39-63.94-40.37-79.18-77.01c-5.71-13.73-9.25-29.02-10.38-43.85
			c-2.13-27.8,5.69-52.52,30.25-69.15c-22.71-30.84-7.46-77.25,41.57-82.97c0.06-0.83,0.34-1.73,0.15-2.53
			c-9.38-40.18,28.65-66.83,66.06-55.61c5.87,1.76,9.98,1.14,15.12-2.18C383.64,141.47,410.82,142.44,432.86,160.98z M325.17,360.45
			c-13.41-20.08-30.38-33.85-47.32-38.92c-23.05-6.89-41.88,2.97-45.95,26.57c-2.26,13.11,0.06,27.04,0.6,40.59
			c0.26,6.6,4.28,8.46,10.61,8.07C274.85,394.8,300.38,379.3,325.17,360.45z M372.09,263.1c7.98-29.95-2.67-59-26.98-73.49
			c-6.78-4.04-15.99-6.09-23.92-5.7c-17.18,0.84-25.39,15.64-18.01,31.2c2.79,5.88,6.63,12.52,11.88,15.76
			C333.47,242.24,352.69,252.28,372.09,263.1z M278.33,244.67c-15.18-0.18-28.79,11.86-28.97,25.63
			c-0.17,12.72,11.26,23.32,25.34,23.5c15.3,0.2,28.75-11.78,28.84-25.67C303.62,255.11,292.6,244.84,278.33,244.67z M247.54,421.69
			c5.03,12.03,6.91,13.13,18.32,11.33c25.3-4,47.74-14.42,67.84-30.14c9.67-7.56,9.69-7.53,3.24-19.36
			C310.32,403.58,281.36,418.32,247.54,421.69z M345.68,428.82c-21.73,9.83-43.4,19.63-65.01,29.41c13.68,8.35,28.8,15.37,45.57,6.5
			C340.75,457.06,345.06,443.06,345.68,428.82z"/>
		<path d="M11.35,20.08c73.1,67.14,145.68,133.8,218.74,200.89c-17,14.45-23.34,32.93-23.52,54.88c-5.5,0.42-10.58,1.1-15.68,1.16
			c-46.28,0.63-90.02-7.29-126.37-38.8c-30.24-26.21-45.16-60.89-52.9-99.08c-7.77-38.35-7.41-76.97-1.8-115.59
			C9.94,22.79,10.45,22.09,11.35,20.08z"/>
		<path d="M162.71,34.28c99.85-44.13,242.03-16.3,311.62,107c65.85,116.68,25.56,258.93-80.04,327.76
			c-4.13-10.32-8.17-20.44-12.05-30.13c11.9-11.27,24.51-21.33,34.87-33.33c54.52-63.12,70.97-135.34,42.92-214.04
			C431.71,112.1,373.46,65.06,290.04,50.55c-34.51-6-68.55-2.39-101.52,9.34c-6.38,2.27-9.35,0.85-12.4-4.47
			C172.08,48.38,167.45,41.7,162.71,34.28z"/>
		<path d="M16.61,205.1c9.57,12.35,18.23,23.2,26.41,34.41c1.46,2,1.44,5.47,1.28,8.21c-6.73,116.15,75.02,213.83,190.71,227.89
			c2.45,0.3,5.11,1.23,7.08,2.68c13.72,10.09,27.29,20.39,41.3,30.93c-77.74,6.09-146.01-16.5-201.1-72.69
			C19.06,372.04-0.77,294.08,16.61,205.1z"/>
		<path d="M119.75,1.82c48.64,67.4,95.78,132.74,143.03,198.23c-7.45,3.8-14.17,7.22-21.63,11.02c-7.8-7.49-16.01-15.19-24.03-23.09
			c-39.44-38.83-78.72-77.82-118.35-116.46c-5.22-5.08-6.56-9.59-3.57-16.01C103.24,38.2,111.09,20.81,119.75,1.82z"/>
		<path d="M356.51,239.76c-10.32-11.66-19.99-22.78-20.31-39.49C353.95,206.46,363.16,224,356.51,239.76z"/>
	</g>
</g>
</svg>
